#!OML:ASF E:\acrobat2\Project_11_07_03\Capture day 1\Session 1\Acrobat.ASF
:FULLY-SPECIFIED
:DEGREES
81
root 8.41295 18.0713 -0.311476 2.84683 -57.7412 1.1474
lowerback -6.38976 1.7662 2.29248
upperback -0.511661 2.2354 -1.70081
thorax 3.21024 1.15122 -2.8408
lowerneck -0.177634 -1.64129 -1.93316
upperneck 6.68012 -2.47969 4.66826
head 2.23405 -1.19208 1.77224
rclavicle 4.48141e-014 -1.59028e-014
rhumerus -39.4096 -13.579 -79.8991
rradius 25.7807
rwrist 4.4641
rhand -8.5737 -38.5713
rfingers 7.12502
rthumb 17.3568 -67.8163
lclavicle 4.48141e-014 -1.59028e-014
lhumerus -31.7614 -1.74789 83.1822
lradius 24.4199
lwrist 9.93946
lhand -2.89293 -13.7742
lfingers 7.12502
lthumb 22.8167 14.8963
rfemur 10.3074 15.4945 18.738
rtibia -3.39404
rfoot -26.9653 -27.4761
rtoes 15.486
lfemur 1.91437 -4.67339 -8.93755
ltibia -2.64502
lfoot -9.01131 5.27621
ltoes 26.5962
82
root 8.40645 18.071 -0.31055 3.20267 -57.6797 0.698274
lowerback -6.40481 1.76152 2.53061
upperback -0.477729 2.21016 -1.62469
thorax 3.25814 1.14289 -2.89745
lowerneck -0.286731 -1.64244 -1.89485
upperneck 6.77678 -2.48374 4.64315
head 2.28447 -1.19157 1.75723
rclavicle 9.11665e-014 7.35503e-015
rhumerus -39.434 -13.4675 -79.9338
rradius 25.7611
rwrist 4.23075
rhand -8.52647 -38.7277
rfingers 7.12502
rthumb 17.4022 -67.9687
lclavicle 9.11665e-014 7.35503e-015
lhumerus -31.7887 -1.93411 83.25
lradius 24.3066
lwrist 10.2456
lhand -2.70473 -13.9832
lfingers 7.12502
lthumb 22.9973 14.6649
rfemur 10.3777 15.5048 19.0822
rtibia -3.40364
rfoot -27.0157 -27.6425
rtoes 15.1497
lfemur 1.93532 -4.45471 -8.60823
ltibia -2.61819
lfoot -8.79478 5.16783
ltoes 25.4384
83
root 8.40178 18.0744 -0.306835 2.74997 -57.6115 1.33346
lowerback -6.50339 1.70004 2.18746
upperback -0.493919 2.15224 -1.68443
thorax 3.28202 1.1092 -2.76937
lowerneck -0.551035 -1.33666 -2.12052
upperneck 7.24568 -2.09925 4.83868
head 2.48117 -0.994813 1.87316
rclavicle 2.04011e-014 -3.97569e-015
rhumerus -39.4774 -13.1271 -80.0126
rradius 25.7677
rwrist 3.95627
rhand -8.5097 -38.6278
rfingers 7.12502
rthumb 17.4184 -67.8674
lclavicle 2.04011e-014 -3.97569e-015
lhumerus -31.9 -2.15497 83.4139
lradius 24.2004
lwrist 10.8459
lhand -2.88094 -13.9945
lfingers 7.12502
lthumb 22.8282 14.6746
rfemur 10.2993 15.2606 18.579
rtibia -3.43432
rfoot -26.8038 -27.6036
rtoes 14.5648
lfemur 1.83926 -4.48735 -9.06567
ltibia -2.60685
lfoot -8.78118 5.10618
ltoes 25.7215
84
root 8.39743 18.0782 -0.303189 1.97785 -57.4735 2.34465
lowerback -6.59447 1.63303 1.65017
upperback -0.492821 2.10391 -1.80612
thorax 3.31607 1.07797 -2.59536
lowerneck -0.679469 -1.36389 -2.2472
upperneck 7.28935 -2.1329 4.85726
head 2.52319 -1.01212 1.9014
rclavicle 3.93221e-015 -1.21259e-014
rhumerus -39.4808 -12.9256 -80.0315
rradius 25.7411
rwrist 3.7904
rhand -8.41073 -38.5276
rfingers 7.12502
rthumb 17.5136 -67.7587
lclavicle 3.93221e-015 -1.21259e-014
lhumerus -31.8858 -2.19592 83.5166
lradius 23.9463
lwrist 10.9898
lhand -2.9034 -13.8323
lfingers 7.12502
lthumb 22.8067 14.8394
rfemur 10.2494 14.8633 17.7945
rtibia -3.51262
rfoot -26.3982 -27.4701
rtoes 13.7311
lfemur 1.71803 -4.52445 -9.811
ltibia -2.55334
lfoot -8.68567 5.03631
ltoes 25.795
85
root 8.39193 18.078 -0.30466 2.14948 -57.3873 2.11599
lowerback -6.57313 1.59443 1.75542
upperback -0.471478 2.04355 -1.74381
thorax 3.32403 1.04962 -2.59614
lowerneck -0.783007 -1.40402 -2.26192
upperneck 7.29697 -2.18234 4.82316
head 2.54629 -1.0363 1.89145
rclavicle -1.34152e-014 -5.76476e-015
rhumerus -39.4816 -12.8217 -80.0305
rradius 25.7091
rwrist 3.7714
rhand -8.29104 -38.7088
rfingers 7.12502
rthumb 17.6288 -67.9296
lclavicle -1.34152e-014 -5.76476e-015
lhumerus -31.8227 -1.6514 83.3518
lradius 23.5422
lwrist 10.1849
lhand -2.49157 -13.9167
lfingers 7.12502
lthumb 23.2018 14.7058
rfemur 10.3125 14.7711 17.9657
rtibia -3.55109
rfoot -26.2008 -27.5432
rtoes 13.0601
lfemur 1.7134 -4.45347 -9.65348
ltibia -2.50209
lfoot -8.60125 4.9532
ltoes 25.4282
86
root 8.38607 18.0761 -0.307203 2.83474 -57.4055 1.27114
lowerback -6.56724 1.58089 2.19289
upperback -0.467762 1.9895 -1.59857
thorax 3.33116 1.02872 -2.69726
lowerneck -0.755338 -1.41445 -2.21618
upperneck 7.22216 -2.19251 4.79081
head 2.51518 -1.04177 1.87177
rclavicle 3.55689e-014 2.36554e-014
rhumerus -39.5425 -12.7503 -80.0472
rradius 25.7108
rwrist 3.78195
rhand -8.30421 -38.8784
rfingers 7.12502
rthumb 17.6161 -68.1003
lclavicle 3.55689e-014 2.36554e-014
lhumerus -31.8543 -0.866763 83.0504
lradius 23.1952
lwrist 9.16131
lhand -2.16781 -13.9814
lfingers 7.12502
lthumb 23.5124 14.6016
rfemur 10.3429 14.8954 18.5948
rtibia -3.52512
rfoot -26.1368 -27.7629
rtoes 12.5206
lfemur 1.74714 -4.37084 -9.03791
ltibia -2.47937
lfoot -8.63755 4.91691
ltoes 25.4027
87
root 8.38133 18.075 -0.307257 3.16092 -57.4275 0.919108
lowerback -6.62747 1.55211 2.35797
upperback -0.478716 1.9349 -1.50727
thorax 3.35236 1.00353 -2.69963
lowerneck -0.608756 -1.39532 -2.30494
upperneck 7.04121 -2.162 4.85046
head 2.42979 -1.03044 1.90705
rclavicle -5.05542e-015 -4.17448e-015
rhumerus -39.6172 -12.7013 -79.9992
rradius 25.6974
rwrist 3.86867
rhand -8.36585 -38.8834
rfingers 7.12502
rthumb 17.5568 -68.1106
lclavicle -5.05542e-015 -4.17448e-015
lhumerus -31.9486 -0.513012 82.95
lradius 23.0015
lwrist 8.77997
lhand -2.25639 -13.8814
lfingers 7.12502
lthumb 23.4275 14.7125
rfemur 10.3055 14.9238 18.841
rtibia -3.51448
rfoot -26.0419 -27.8841
rtoes 12.0262
lfemur 1.7118 -4.25233 -8.76722
ltibia -2.43334
lfoot -8.61005 4.82479
ltoes 25.5248
88
root 8.37769 18.0744 -0.30957 3.07795 -57.3538 1.08639
lowerback -6.69218 1.44901 2.17548
upperback -0.494876 1.80738 -1.44205
thorax 3.35553 0.936603 -2.54053
lowerneck -0.269255 -1.31825 -2.62898
upperneck 6.67214 -2.05386 5.08864
head 2.25197 -0.985926 2.04435
rclavicle 5.20641e-014 -7.95139e-016
rhumerus -39.5755 -12.7844 -79.8374
rradius 25.5153
rwrist 4.23846
rhand -8.40935 -38.8185
rfingers 7.12502
rthumb 17.5149 -68.0495
lclavicle 5.20641e-014 -7.95139e-016
lhumerus -32.0602 -0.339317 82.9979
lradius 22.8665
lwrist 8.72454
lhand -2.46011 -13.9333
lfingers 7.12502
lthumb 23.232 14.6853
rfemur 10.2802 14.9213 18.7508
rtibia -3.57758
rfoot -26.026 -28.0153
rtoes 11.9168
lfemur 1.59305 -4.21007 -8.84556
ltibia -2.35891
lfoot -8.5301 4.72093
ltoes 25.406
89
root 8.37448 18.0737 -0.31318 3.05625 -57.2519 1.19203
lowerback -6.76721 1.39416 2.08781
upperback -0.504423 1.73935 -1.44335
thorax 3.38087 0.901499 -2.49777
lowerneck 0.128131 -1.25066 -2.83337
upperneck 6.24533 -1.96178 5.34151
head 2.04447 -0.947753 2.16427
rclavicle -3.70873e-014 -3.97569e-015
rhumerus -39.52 -13.088 -79.7029
rradius 25.3176
rwrist 4.60396
rhand -8.43856 -38.6823
rfingers 7.12502
rthumb 17.4868 -67.9158
lclavicle -3.70873e-014 -3.97569e-015
lhumerus -32.1293 -0.365479 83.0196
lradius 22.7546
lwrist 8.83812
lhand -2.59453 -13.99
lfingers 7.12502
lthumb 23.1031 14.6449
rfemur 10.2618 14.996 18.7382
rtibia -3.64617
rfoot -26.0229 -28.2855
rtoes 11.7413
lfemur 1.48196 -4.42767 -8.89868
ltibia -2.34222
lfoot -8.63475 4.74201
ltoes 26.2841
